P3
# Created by GIMP version 2.10.12 PNM plug-in
8 8
255
0
0
0
0
0
0
0
0
0
0
0
0
0
0
0
0
0
0
0
0
0
0
0
0
0
0
0
0
0
0
255
255
255
255
255
255
212
230
237
0
0
0
0
0
0
0
0
0
0
0
0
212
230
237
255
255
255
255
255
255
255
255
255
187
214
225
187
214
225
0
0
0
0
0
0
212
230
237
212
230
237
186
217
229
186
217
229
186
217
229
118
172
193
0
0
0
0
0
0
0
0
0
118
172
193
118
172
193
118
172
193
118
172
193
0
0
0
0
0
0
0
0
0
0
57
219
0
0
0
0
57
219
0
0
0
0
57
219
0
0
0
0
0
0
0
0
0
0
0
0
0
0
0
0
0
0
0
0
0
0
0
0
0
0
0
0
0
0
0
57
219
0
0
0
0
57
219
0
0
0
0
57
219
0
0
0
0
0
0
0
0
0
